solid ascii
  facet normal -0.000000e+000 0.000000e+000 -1.000000e+000
    outer loop
      vertex   -3.601305e+001 1.530605e+001 5.000000e-002
      vertex   -4.431201e+001 9.723716e+000 5.000000e-002
      vertex   -4.231127e+001 2.430083e+001 5.000000e-002
    endloop
  endfacet
  facet normal -0.000000e+000 0.000000e+000 -1.000000e+000
    outer loop
      vertex   -4.231127e+001 2.430083e+001 5.000000e-002
      vertex   -4.431201e+001 9.723716e+000 5.000000e-002
      vertex   -5.056902e+001 1.865966e+001 5.000000e-002
    endloop
  endfacet
  facet normal -8.191520e-001 -5.735764e-001 0.000000e+000
    outer loop
      vertex   -4.431201e+001 9.723716e+000 2.050000e+000
      vertex   -5.056902e+001 1.865966e+001 2.050000e+000
      vertex   -4.431201e+001 9.723716e+000 5.000000e-002
    endloop
  endfacet
  facet normal -8.191520e-001 -5.735764e-001 -0.000000e+000
    outer loop
      vertex   -4.431201e+001 9.723716e+000 5.000000e-002
      vertex   -5.056902e+001 1.865966e+001 2.050000e+000
      vertex   -5.056902e+001 1.865966e+001 5.000000e-002
    endloop
  endfacet
  facet normal 8.191520e-001 5.735764e-001 -3.235445e-016
    outer loop
      vertex   -3.601305e+001 1.530605e+001 5.000000e-002
      vertex   -4.231127e+001 2.430083e+001 5.000000e-002
      vertex   -3.601305e+001 1.530605e+001 2.050000e+000
    endloop
  endfacet
  facet normal 8.191520e-001 5.735764e-001 -0.000000e+000
    outer loop
      vertex   -3.601305e+001 1.530605e+001 2.050000e+000
      vertex   -4.231127e+001 2.430083e+001 5.000000e-002
      vertex   -4.231127e+001 2.430083e+001 2.050000e+000
    endloop
  endfacet
  facet normal 0.000000e+000 0.000000e+000 1.000000e+000
    outer loop
      vertex   -3.601305e+001 1.530605e+001 2.050000e+000
      vertex   -4.231127e+001 2.430083e+001 2.050000e+000
      vertex   -4.431201e+001 9.723716e+000 2.050000e+000
    endloop
  endfacet
  facet normal 0.000000e+000 -0.000000e+000 1.000000e+000
    outer loop
      vertex   -4.431201e+001 9.723716e+000 2.050000e+000
      vertex   -4.231127e+001 2.430083e+001 2.050000e+000
      vertex   -5.056902e+001 1.865966e+001 2.050000e+000
    endloop
  endfacet
  facet normal 0.000000e+000 0.000000e+000 -1.000000e+000
    outer loop
      vertex   -3.500000e+001 -1.015357e+001 5.000000e-002
      vertex   -4.500000e+001 -1.015357e+001 5.000000e-002
      vertex   -3.500000e+001 3.725334e+000 5.000000e-002
    endloop
  endfacet
  facet normal -0.000000e+000 0.000000e+000 -1.000000e+000
    outer loop
      vertex   -3.500000e+001 3.725334e+000 5.000000e-002
      vertex   -4.500000e+001 -1.015357e+001 5.000000e-002
      vertex   -4.500000e+001 3.725334e+000 5.000000e-002
    endloop
  endfacet
  facet normal -1.000000e+000 0.000000e+000 -0.000000e+000
    outer loop
      vertex   -4.500000e+001 -1.015357e+001 2.050000e+000
      vertex   -4.500000e+001 3.725334e+000 2.050000e+000
      vertex   -4.500000e+001 -1.015357e+001 5.000000e-002
    endloop
  endfacet
  facet normal -1.000000e+000 0.000000e+000 -0.000000e+000
    outer loop
      vertex   -4.500000e+001 -1.015357e+001 5.000000e-002
      vertex   -4.500000e+001 3.725334e+000 2.050000e+000
      vertex   -4.500000e+001 3.725334e+000 5.000000e-002
    endloop
  endfacet
  facet normal 1.000000e+000 0.000000e+000 -0.000000e+000
    outer loop
      vertex   -3.500000e+001 -1.015357e+001 5.000000e-002
      vertex   -3.500000e+001 3.725334e+000 5.000000e-002
      vertex   -3.500000e+001 -1.015357e+001 2.050000e+000
    endloop
  endfacet
  facet normal 1.000000e+000 -0.000000e+000 0.000000e+000
    outer loop
      vertex   -3.500000e+001 -1.015357e+001 2.050000e+000
      vertex   -3.500000e+001 3.725334e+000 5.000000e-002
      vertex   -3.500000e+001 3.725334e+000 2.050000e+000
    endloop
  endfacet
  facet normal 0.000000e+000 -0.000000e+000 1.000000e+000
    outer loop
      vertex   -4.500000e+001 -1.015357e+001 2.050000e+000
      vertex   -3.500000e+001 -1.015357e+001 2.050000e+000
      vertex   -4.500000e+001 3.725334e+000 2.050000e+000
    endloop
  endfacet
  facet normal -0.000000e+000 0.000000e+000 1.000000e+000
    outer loop
      vertex   -4.500000e+001 3.725334e+000 2.050000e+000
      vertex   -3.500000e+001 -1.015357e+001 2.050000e+000
      vertex   -3.500000e+001 3.725334e+000 2.050000e+000
    endloop
  endfacet
  facet normal 0.000000e+000 7.071068e-001 7.071068e-001
    outer loop
      vertex   -2.966576e+001 5.725334e+000 1.413481e+001
      vertex   -4.667283e+001 5.725334e+000 1.413481e+001
      vertex   -2.867576e+001 4.735334e+000 1.512481e+001
    endloop
  endfacet
  facet normal -5.599426e-017 7.071068e-001 7.071068e-001
    outer loop
      vertex   -2.867576e+001 4.735334e+000 1.512481e+001
      vertex   -4.667283e+001 5.725334e+000 1.413481e+001
      vertex   -4.991837e+001 4.735334e+000 1.512481e+001
    endloop
  endfacet
  facet normal 3.946613e-001 -5.867218e-001 7.071068e-001
    outer loop
      vertex   -4.991837e+001 4.735334e+000 1.512481e+001
      vertex   -4.667283e+001 5.725334e+000 1.413481e+001
      vertex   -2.867576e+001 1.902428e+001 1.512481e+001
    endloop
  endfacet
  facet normal 3.946613e-001 -5.867218e-001 7.071068e-001
    outer loop
      vertex   -2.867576e+001 1.902428e+001 1.512481e+001
      vertex   -4.667283e+001 5.725334e+000 1.413481e+001
      vertex   -2.966576e+001 1.716522e+001 1.413481e+001
    endloop
  endfacet
  facet normal -7.071068e-001 -3.257889e-016 7.071068e-001
    outer loop
      vertex   -2.966576e+001 5.725334e+000 1.413481e+001
      vertex   -2.867576e+001 4.735334e+000 1.512481e+001
      vertex   -2.966576e+001 1.716522e+001 1.413481e+001
    endloop
  endfacet
  facet normal -7.071068e-001 1.758106e-016 7.071068e-001
    outer loop
      vertex   -2.966576e+001 1.716522e+001 1.413481e+001
      vertex   -2.867576e+001 4.735334e+000 1.512481e+001
      vertex   -2.867576e+001 1.902428e+001 1.512481e+001
    endloop
  endfacet
  facet normal 5.581353e-001 -8.297500e-001 6.879404e-016
    outer loop
      vertex   -2.966576e+001 1.716522e+001 1.413481e+001
      vertex   -4.667283e+001 5.725334e+000 1.413481e+001
      vertex   -2.966576e+001 1.716522e+001 2.518971e-002
    endloop
  endfacet
  facet normal 5.581353e-001 -8.297500e-001 8.455026e-017
    outer loop
      vertex   -2.966576e+001 1.716522e+001 2.518971e-002
      vertex   -4.667283e+001 5.725334e+000 1.413481e+001
      vertex   -4.667283e+001 5.725334e+000 2.518971e-002
    endloop
  endfacet
  facet normal 0.000000e+000 1.000000e+000 -4.406390e-016
    outer loop
      vertex   -4.667283e+001 5.725334e+000 1.413481e+001
      vertex   -2.966576e+001 5.725334e+000 1.413481e+001
      vertex   -4.667283e+001 5.725334e+000 2.518971e-002
    endloop
  endfacet
  facet normal 0.000000e+000 1.000000e+000 -4.406390e-016
    outer loop
      vertex   -4.667283e+001 5.725334e+000 2.518971e-002
      vertex   -2.966576e+001 5.725334e+000 1.413481e+001
      vertex   -2.966576e+001 5.725334e+000 2.518971e-002
    endloop
  endfacet
  facet normal -6.910728e-017 2.265562e-016 1.000000e+000
    outer loop
      vertex   -4.998394e+001 4.715334e+000 1.512481e+001
      vertex   -4.991837e+001 4.735334e+000 1.512481e+001
      vertex   -2.865576e+001 1.906183e+001 1.512481e+001
    endloop
  endfacet
  facet normal 0.000000e+000 -0.000000e+000 1.000000e+000
    outer loop
      vertex   -4.998394e+001 4.715334e+000 1.512481e+001
      vertex   -2.865576e+001 4.715334e+000 1.512481e+001
      vertex   -4.991837e+001 4.735334e+000 1.512481e+001
    endloop
  endfacet
  facet normal -8.362236e-017 -8.890146e-014 1.000000e+000
    outer loop
      vertex   -4.991837e+001 4.735334e+000 1.512481e+001
      vertex   -2.865576e+001 4.715334e+000 1.512481e+001
      vertex   -2.867576e+001 4.735334e+000 1.512481e+001
    endloop
  endfacet
  facet normal 8.906648e-014 2.486338e-016 1.000000e+000
    outer loop
      vertex   -2.867576e+001 4.735334e+000 1.512481e+001
      vertex   -2.865576e+001 4.715334e+000 1.512481e+001
      vertex   -2.867576e+001 1.902428e+001 1.512481e+001
    endloop
  endfacet
  facet normal -2.325103e-016 1.238181e-016 1.000000e+000
    outer loop
      vertex   -2.867576e+001 1.902428e+001 1.512481e+001
      vertex   -2.865576e+001 4.715334e+000 1.512481e+001
      vertex   -2.865576e+001 1.906183e+001 1.512481e+001
    endloop
  endfacet
  facet normal 1.302949e-016 -6.938565e-017 1.000000e+000
    outer loop
      vertex   -4.991837e+001 4.735334e+000 1.512481e+001
      vertex   -2.867576e+001 1.902428e+001 1.512481e+001
      vertex   -2.865576e+001 1.906183e+001 1.512481e+001
    endloop
  endfacet
  facet normal -3.946613e-001 5.867218e-001 7.071068e-001
    outer loop
      vertex   -2.865576e+001 1.906183e+001 1.512481e+001
      vertex   -2.766576e+001 2.092089e+001 1.413481e+001
      vertex   -4.998394e+001 4.715334e+000 1.512481e+001
    endloop
  endfacet
  facet normal -3.946613e-001 5.867218e-001 7.071068e-001
    outer loop
      vertex   -4.998394e+001 4.715334e+000 1.512481e+001
      vertex   -2.766576e+001 2.092089e+001 1.413481e+001
      vertex   -5.322948e+001 3.725334e+000 1.413481e+001
    endloop
  endfacet
  facet normal 7.071068e-001 1.475685e-016 7.071068e-001
    outer loop
      vertex   -2.766576e+001 2.092089e+001 1.413481e+001
      vertex   -2.865576e+001 1.906183e+001 1.512481e+001
      vertex   -2.766576e+001 3.725334e+000 1.413481e+001
    endloop
  endfacet
  facet normal 7.071068e-001 8.755265e-017 7.071068e-001
    outer loop
      vertex   -2.766576e+001 3.725334e+000 1.413481e+001
      vertex   -2.865576e+001 1.906183e+001 1.512481e+001
      vertex   -2.865576e+001 4.715334e+000 1.512481e+001
    endloop
  endfacet
  facet normal -4.913503e-017 -7.071068e-001 7.071068e-001
    outer loop
      vertex   -5.322948e+001 3.725334e+000 1.413481e+001
      vertex   -2.766576e+001 3.725334e+000 1.413481e+001
      vertex   -4.998394e+001 4.715334e+000 1.512481e+001
    endloop
  endfacet
  facet normal 0.000000e+000 -7.071068e-001 7.071068e-001
    outer loop
      vertex   -4.998394e+001 4.715334e+000 1.512481e+001
      vertex   -2.766576e+001 3.725334e+000 1.413481e+001
      vertex   -2.865576e+001 4.715334e+000 1.512481e+001
    endloop
  endfacet
  facet normal -1.338843e-018 -1.000000e+000 4.440892e-016
    outer loop
      vertex   -4.500000e+001 3.725334e+000 2.050000e+000
      vertex   -5.322948e+001 3.725334e+000 2.518971e-002
      vertex   -4.500000e+001 3.725334e+000 5.000000e-002
    endloop
  endfacet
  facet normal -4.899385e-019 -1.000000e+000 4.406390e-016
    outer loop
      vertex   -4.500000e+001 3.725334e+000 2.050000e+000
      vertex   -5.322948e+001 3.725334e+000 1.413481e+001
      vertex   -5.322948e+001 3.725334e+000 2.518971e-002
    endloop
  endfacet
  facet normal -3.064205e-032 -1.000000e+000 4.409726e-016
    outer loop
      vertex   -4.500000e+001 3.725334e+000 2.050000e+000
      vertex   -2.766576e+001 3.725334e+000 1.413481e+001
      vertex   -5.322948e+001 3.725334e+000 1.413481e+001
    endloop
  endfacet
  facet normal 1.776357e-016 -1.000000e+000 1.861752e-016
    outer loop
      vertex   -4.500000e+001 3.725334e+000 2.050000e+000
      vertex   -3.500000e+001 3.725334e+000 2.050000e+000
      vertex   -2.766576e+001 3.725334e+000 1.413481e+001
    endloop
  endfacet
  facet normal -2.416509e-016 -1.000000e+000 4.406390e-016
    outer loop
      vertex   -2.766576e+001 3.725334e+000 1.413481e+001
      vertex   -3.500000e+001 3.725334e+000 2.050000e+000
      vertex   -2.766576e+001 3.725334e+000 2.518971e-002
    endloop
  endfacet
  facet normal -1.180958e-016 -1.000000e+000 8.881784e-016
    outer loop
      vertex   -2.766576e+001 3.725334e+000 2.518971e-002
      vertex   -3.500000e+001 3.725334e+000 2.050000e+000
      vertex   -3.500000e+001 3.725334e+000 5.000000e-002
    endloop
  endfacet
  facet normal 8.881784e-017 -1.000000e+000 6.205447e-014
    outer loop
      vertex   -4.500000e+001 3.725334e+000 5.000000e-002
      vertex   -2.766576e+001 3.725334e+000 2.518971e-002
      vertex   -3.500000e+001 3.725334e+000 5.000000e-002
    endloop
  endfacet
  facet normal 0.000000e+000 -1.000000e+000 -0.000000e+000
    outer loop
      vertex   -4.500000e+001 3.725334e+000 5.000000e-002
      vertex   -5.322948e+001 3.725334e+000 2.518971e-002
      vertex   -2.766576e+001 3.725334e+000 2.518971e-002
    endloop
  endfacet
  facet normal -5.581353e-001 8.297500e-001 0.000000e+000
    outer loop
      vertex   -4.431201e+001 9.723716e+000 5.000000e-002
      vertex   -5.322948e+001 3.725334e+000 2.518971e-002
      vertex   -4.431201e+001 9.723716e+000 2.050000e+000
    endloop
  endfacet
  facet normal -5.581353e-001 8.297500e-001 -2.230965e-013
    outer loop
      vertex   -4.431201e+001 9.723716e+000 5.000000e-002
      vertex   -2.766576e+001 2.092089e+001 2.518971e-002
      vertex   -5.322948e+001 3.725334e+000 2.518971e-002
    endloop
  endfacet
  facet normal -5.581353e-001 8.297500e-001 2.863401e-014
    outer loop
      vertex   -4.431201e+001 9.723716e+000 5.000000e-002
      vertex   -3.601305e+001 1.530605e+001 5.000000e-002
      vertex   -2.766576e+001 2.092089e+001 2.518971e-002
    endloop
  endfacet
  facet normal -5.581353e-001 8.297500e-001 -7.369660e-016
    outer loop
      vertex   -2.766576e+001 2.092089e+001 2.518971e-002
      vertex   -3.601305e+001 1.530605e+001 5.000000e-002
      vertex   -3.601305e+001 1.530605e+001 2.050000e+000
    endloop
  endfacet
  facet normal -5.581353e-001 8.297500e-001 -5.290743e-016
    outer loop
      vertex   -2.766576e+001 2.092089e+001 1.413481e+001
      vertex   -3.601305e+001 1.530605e+001 2.050000e+000
      vertex   -4.431201e+001 9.723716e+000 2.050000e+000
    endloop
  endfacet
  facet normal -5.581353e-001 8.297500e-001 -3.748610e-016
    outer loop
      vertex   -5.322948e+001 3.725334e+000 1.413481e+001
      vertex   -4.431201e+001 9.723716e+000 2.050000e+000
      vertex   -5.322948e+001 3.725334e+000 2.518971e-002
    endloop
  endfacet
  facet normal -5.581353e-001 8.297500e-001 -1.526735e-016
    outer loop
      vertex   -5.322948e+001 3.725334e+000 1.413481e+001
      vertex   -2.766576e+001 2.092089e+001 1.413481e+001
      vertex   -4.431201e+001 9.723716e+000 2.050000e+000
    endloop
  endfacet
  facet normal -5.581353e-001 8.297500e-001 -6.507588e-016
    outer loop
      vertex   -2.766576e+001 2.092089e+001 2.518971e-002
      vertex   -3.601305e+001 1.530605e+001 2.050000e+000
      vertex   -2.766576e+001 2.092089e+001 1.413481e+001
    endloop
  endfacet
  facet normal 1.000000e+000 0.000000e+000 0.000000e+000
    outer loop
      vertex   -2.766576e+001 2.092089e+001 1.413481e+001
      vertex   -2.766576e+001 3.725334e+000 1.413481e+001
      vertex   -2.766576e+001 2.092089e+001 2.518971e-002
    endloop
  endfacet
  facet normal 1.000000e+000 0.000000e+000 0.000000e+000
    outer loop
      vertex   -2.766576e+001 2.092089e+001 2.518971e-002
      vertex   -2.766576e+001 3.725334e+000 1.413481e+001
      vertex   -2.766576e+001 3.725334e+000 2.518971e-002
    endloop
  endfacet
  facet normal -1.000000e+000 -6.211101e-016 2.345874e-031
    outer loop
      vertex   -2.966576e+001 5.725334e+000 1.413481e+001
      vertex   -2.966576e+001 1.716522e+001 1.413481e+001
      vertex   -2.966576e+001 5.725334e+000 2.518971e-002
    endloop
  endfacet
  facet normal -1.000000e+000 -2.345874e-031 -5.035874e-016
    outer loop
      vertex   -2.966576e+001 5.725334e+000 2.518971e-002
      vertex   -2.966576e+001 1.716522e+001 1.413481e+001
      vertex   -2.966576e+001 1.716522e+001 2.518971e-002
    endloop
  endfacet
  facet normal -6.172441e-016 -4.842340e-016 -1.000000e+000
    outer loop
      vertex   -2.766576e+001 3.725334e+000 2.518971e-002
      vertex   -2.966576e+001 1.716522e+001 2.518971e-002
      vertex   -2.766576e+001 2.092089e+001 2.518971e-002
    endloop
  endfacet
  facet normal -2.979402e-016 -4.367181e-016 -1.000000e+000
    outer loop
      vertex   -2.766576e+001 3.725334e+000 2.518971e-002
      vertex   -2.966576e+001 5.725334e+000 2.518971e-002
      vertex   -2.966576e+001 1.716522e+001 2.518971e-002
    endloop
  endfacet
  facet normal 0.000000e+000 -1.387779e-016 -1.000000e+000
    outer loop
      vertex   -2.766576e+001 3.725334e+000 2.518971e-002
      vertex   -4.667283e+001 5.725334e+000 2.518971e-002
      vertex   -2.966576e+001 5.725334e+000 2.518971e-002
    endloop
  endfacet
  facet normal -0.000000e+000 -1.387779e-016 -1.000000e+000
    outer loop
      vertex   -2.766576e+001 3.725334e+000 2.518971e-002
      vertex   -5.322948e+001 3.725334e+000 2.518971e-002
      vertex   -4.667283e+001 5.725334e+000 2.518971e-002
    endloop
  endfacet
  facet normal 1.928112e-016 -7.708761e-016 -1.000000e+000
    outer loop
      vertex   -4.667283e+001 5.725334e+000 2.518971e-002
      vertex   -5.322948e+001 3.725334e+000 2.518971e-002
      vertex   -2.766576e+001 2.092089e+001 2.518971e-002
    endloop
  endfacet
  facet normal 3.943065e-016 -1.022913e-015 -1.000000e+000
    outer loop
      vertex   -2.966576e+001 1.716522e+001 2.518971e-002
      vertex   -4.667283e+001 5.725334e+000 2.518971e-002
      vertex   -2.766576e+001 2.092089e+001 2.518971e-002
    endloop
  endfacet
  facet normal 7.071068e-001 1.352563e-016 7.071068e-001
    outer loop
      vertex   -1.306249e+001 -2.144019e+001 1.413481e+001
      vertex   -1.306249e+001 -1.215357e+001 1.413481e+001
      vertex   -1.405249e+001 -2.045019e+001 1.512481e+001
    endloop
  endfacet
  facet normal 7.071068e-001 2.732451e-016 7.071068e-001
    outer loop
      vertex   -1.405249e+001 -2.045019e+001 1.512481e+001
      vertex   -1.306249e+001 -1.215357e+001 1.413481e+001
      vertex   -1.405249e+001 -1.116357e+001 1.512481e+001
    endloop
  endfacet
  facet normal -7.071068e-001 9.339293e-017 7.071068e-001
    outer loop
      vertex   -7.612937e+001 2.421628e+000 1.512481e+001
      vertex   -7.711937e+001 2.944276e+000 1.413481e+001
      vertex   -7.612937e+001 -1.116357e+001 1.512481e+001
    endloop
  endfacet
  facet normal -7.071068e-001 2.495867e-016 7.071068e-001
    outer loop
      vertex   -7.612937e+001 -1.116357e+001 1.512481e+001
      vertex   -7.711937e+001 2.944276e+000 1.413481e+001
      vertex   -7.711937e+001 -1.215357e+001 1.413481e+001
    endloop
  endfacet
  facet normal -3.988645e-001 5.838725e-001 7.071068e-001
    outer loop
      vertex   -7.711937e+001 2.944276e+000 1.413481e+001
      vertex   -7.612937e+001 2.421628e+000 1.512481e+001
      vertex   -5.267602e+001 1.964242e+001 1.413481e+001
    endloop
  endfacet
  facet normal -3.988645e-001 5.838725e-001 7.071068e-001
    outer loop
      vertex   -5.267602e+001 1.964242e+001 1.413481e+001
      vertex   -7.612937e+001 2.421628e+000 1.512481e+001
      vertex   -5.202808e+001 1.888610e+001 1.512481e+001
    endloop
  endfacet
  facet normal -3.988645e-001 5.838725e-001 7.071068e-001
    outer loop
      vertex   -2.792678e+001 3.535057e+001 1.512481e+001
      vertex   -5.267602e+001 1.964242e+001 1.413481e+001
      vertex   -5.202808e+001 1.888610e+001 1.512481e+001
    endloop
  endfacet
  facet normal -3.988645e-001 5.838725e-001 7.071068e-001
    outer loop
      vertex   -2.792678e+001 3.535057e+001 1.512481e+001
      vertex   -2.823266e+001 3.634057e+001 1.413481e+001
      vertex   -5.267602e+001 1.964242e+001 1.413481e+001
    endloop
  endfacet
  facet normal -8.279895e-017 7.071068e-001 7.071068e-001
    outer loop
      vertex   -1.306249e+001 3.634057e+001 1.413481e+001
      vertex   -2.823266e+001 3.634057e+001 1.413481e+001
      vertex   -1.405249e+001 3.535057e+001 1.512481e+001
    endloop
  endfacet
  facet normal -3.657877e-016 7.071068e-001 7.071068e-001
    outer loop
      vertex   -1.405249e+001 3.535057e+001 1.512481e+001
      vertex   -2.823266e+001 3.634057e+001 1.413481e+001
      vertex   -2.792678e+001 3.535057e+001 1.512481e+001
    endloop
  endfacet
  facet normal 7.071068e-001 2.875050e-016 7.071068e-001
    outer loop
      vertex   -1.306249e+001 3.634057e+001 1.413481e+001
      vertex   -1.405249e+001 3.535057e+001 1.512481e+001
      vertex   -1.306249e+001 5.725334e+000 1.413481e+001
    endloop
  endfacet
  facet normal 7.071068e-001 2.871942e-016 7.071068e-001
    outer loop
      vertex   -1.306249e+001 5.725334e+000 1.413481e+001
      vertex   -1.405249e+001 3.535057e+001 1.512481e+001
      vertex   -1.405249e+001 4.735334e+000 1.512481e+001
    endloop
  endfacet
  facet normal -8.344626e-017 7.071068e-001 7.071068e-001
    outer loop
      vertex   1.990000e+000 5.725334e+000 1.413481e+001
      vertex   -1.306249e+001 5.725334e+000 1.413481e+001
      vertex   1.000000e+000 4.735334e+000 1.512481e+001
    endloop
  endfacet
  facet normal -8.428915e-017 7.071068e-001 7.071068e-001
    outer loop
      vertex   1.000000e+000 4.735334e+000 1.512481e+001
      vertex   -1.306249e+001 5.725334e+000 1.413481e+001
      vertex   -1.405249e+001 4.735334e+000 1.512481e+001
    endloop
  endfacet
  facet normal -2.646951e-017 -7.071068e-001 7.071068e-001
    outer loop
      vertex   -2.867576e+001 -1.116357e+001 1.512481e+001
      vertex   -7.612937e+001 -1.116357e+001 1.512481e+001
      vertex   -2.966576e+001 -1.215357e+001 1.413481e+001
    endloop
  endfacet
  facet normal 0.000000e+000 -7.071068e-001 7.071068e-001
    outer loop
      vertex   -2.966576e+001 -1.215357e+001 1.413481e+001
      vertex   -7.612937e+001 -1.116357e+001 1.512481e+001
      vertex   -7.711937e+001 -1.215357e+001 1.413481e+001
    endloop
  endfacet
  facet normal 7.071068e-001 2.483746e-016 7.071068e-001
    outer loop
      vertex   1.990000e+000 5.725334e+000 1.413481e+001
      vertex   1.000000e+000 4.735334e+000 1.512481e+001
      vertex   1.990000e+000 -1.215357e+001 1.413481e+001
    endloop
  endfacet
  facet normal 7.071068e-001 6.912832e-017 7.071068e-001
    outer loop
      vertex   1.990000e+000 -1.215357e+001 1.413481e+001
      vertex   1.000000e+000 4.735334e+000 1.512481e+001
      vertex   1.000000e+000 -1.116357e+001 1.512481e+001
    endloop
  endfacet
  facet normal -7.071068e-001 1.280837e-016 7.071068e-001
    outer loop
      vertex   -2.867576e+001 -1.116357e+001 1.512481e+001
      vertex   -2.966576e+001 -1.215357e+001 1.413481e+001
      vertex   -2.867576e+001 -2.045019e+001 1.512481e+001
    endloop
  endfacet
  facet normal -7.071068e-001 0.000000e+000 7.071068e-001
    outer loop
      vertex   -2.867576e+001 -2.045019e+001 1.512481e+001
      vertex   -2.966576e+001 -1.215357e+001 1.413481e+001
      vertex   -2.966576e+001 -2.144019e+001 1.413481e+001
    endloop
  endfacet
  facet normal 0.000000e+000 -7.071068e-001 7.071068e-001
    outer loop
      vertex   1.990000e+000 -1.215357e+001 1.413481e+001
      vertex   1.000000e+000 -1.116357e+001 1.512481e+001
      vertex   -1.306249e+001 -1.215357e+001 1.413481e+001
    endloop
  endfacet
  facet normal -8.344626e-017 -7.071068e-001 7.071068e-001
    outer loop
      vertex   -1.306249e+001 -1.215357e+001 1.413481e+001
      vertex   1.000000e+000 -1.116357e+001 1.512481e+001
      vertex   -1.405249e+001 -1.116357e+001 1.512481e+001
    endloop
  endfacet
  facet normal 0.000000e+000 -7.071068e-001 7.071068e-001
    outer loop
      vertex   -1.405249e+001 -2.045019e+001 1.512481e+001
      vertex   -2.867576e+001 -2.045019e+001 1.512481e+001
      vertex   -1.306249e+001 -2.144019e+001 1.413481e+001
    endloop
  endfacet
  facet normal -7.641635e-017 -7.071068e-001 7.071068e-001
    outer loop
      vertex   -1.306249e+001 -2.144019e+001 1.413481e+001
      vertex   -2.867576e+001 -2.045019e+001 1.512481e+001
      vertex   -2.966576e+001 -2.144019e+001 1.413481e+001
    endloop
  endfacet
  facet normal -0.000000e+000 -1.000000e+000 -5.035874e-016
    outer loop
      vertex   1.990000e+000 -1.215357e+001 1.413481e+001
      vertex   -1.306249e+001 -1.215357e+001 1.413481e+001
      vertex   1.990000e+000 -1.215357e+001 2.518971e-002
    endloop
  endfacet
  facet normal 0.000000e+000 -1.000000e+000 -5.035874e-016
    outer loop
      vertex   1.990000e+000 -1.215357e+001 2.518971e-002
      vertex   -1.306249e+001 -1.215357e+001 1.413481e+001
      vertex   -1.306249e+001 -1.215357e+001 2.518971e-002
    endloop
  endfacet
  facet normal 1.000000e+000 2.408172e-032 1.258969e-016
    outer loop
      vertex   -1.306249e+001 -1.215357e+001 1.413481e+001
      vertex   -1.306249e+001 -2.144019e+001 1.413481e+001
      vertex   -1.306249e+001 -1.215357e+001 2.518971e-002
    endloop
  endfacet
  facet normal 1.000000e+000 7.224516e-032 1.258969e-016
    outer loop
      vertex   -1.306249e+001 -1.215357e+001 2.518971e-002
      vertex   -1.306249e+001 -2.144019e+001 1.413481e+001
      vertex   -1.306249e+001 -2.144019e+001 2.518971e-002
    endloop
  endfacet
  facet normal 0.000000e+000 -1.000000e+000 -0.000000e+000
    outer loop
      vertex   -1.306249e+001 -2.144019e+001 1.413481e+001
      vertex   -2.966576e+001 -2.144019e+001 1.413481e+001
      vertex   -1.306249e+001 -2.144019e+001 2.518971e-002
    endloop
  endfacet
  facet normal -0.000000e+000 -1.000000e+000 -0.000000e+000
    outer loop
      vertex   -1.306249e+001 -2.144019e+001 2.518971e-002
      vertex   -2.966576e+001 -2.144019e+001 1.413481e+001
      vertex   -2.966576e+001 -2.144019e+001 2.518971e-002
    endloop
  endfacet
  facet normal -1.000000e+000 0.000000e+000 -5.035874e-016
    outer loop
      vertex   -2.966576e+001 -2.144019e+001 1.413481e+001
      vertex   -2.966576e+001 -1.215357e+001 1.413481e+001
      vertex   -2.966576e+001 -2.144019e+001 2.518971e-002
    endloop
  endfacet
  facet normal -1.000000e+000 -2.889806e-031 -5.035874e-016
    outer loop
      vertex   -2.966576e+001 -2.144019e+001 2.518971e-002
      vertex   -2.966576e+001 -1.215357e+001 1.413481e+001
      vertex   -2.966576e+001 -1.215357e+001 2.518971e-002
    endloop
  endfacet
  facet normal 0.000000e+000 -1.000000e+000 1.258969e-016
    outer loop
      vertex   -2.966576e+001 -1.215357e+001 1.413481e+001
      vertex   -7.711937e+001 -1.215357e+001 1.413481e+001
      vertex   -2.966576e+001 -1.215357e+001 2.518971e-002
    endloop
  endfacet
  facet normal 0.000000e+000 -1.000000e+000 1.258969e-016
    outer loop
      vertex   -2.966576e+001 -1.215357e+001 2.518971e-002
      vertex   -7.711937e+001 -1.215357e+001 1.413481e+001
      vertex   -7.711937e+001 -1.215357e+001 2.518971e-002
    endloop
  endfacet
  facet normal -1.000000e+000 0.000000e+000 -0.000000e+000
    outer loop
      vertex   -7.711937e+001 -1.215357e+001 1.413481e+001
      vertex   -7.711937e+001 2.944276e+000 1.413481e+001
      vertex   -7.711937e+001 -1.215357e+001 2.518971e-002
    endloop
  endfacet
  facet normal -1.000000e+000 0.000000e+000 -0.000000e+000
    outer loop
      vertex   -7.711937e+001 -1.215357e+001 2.518971e-002
      vertex   -7.711937e+001 2.944276e+000 1.413481e+001
      vertex   -7.711937e+001 2.944276e+000 2.518971e-002
    endloop
  endfacet
  facet normal -1.912813e-016 1.912813e-016 1.000000e+000
    outer loop
      vertex   -2.865576e+001 -2.043019e+001 1.512481e+001
      vertex   -2.865576e+001 -1.114357e+001 1.512481e+001
      vertex   -2.867576e+001 -1.116357e+001 1.512481e+001
    endloop
  endfacet
  facet normal -1.912813e-016 1.912813e-016 1.000000e+000
    outer loop
      vertex   -2.867576e+001 -2.045019e+001 1.512481e+001
      vertex   -2.865576e+001 -2.043019e+001 1.512481e+001
      vertex   -2.867576e+001 -1.116357e+001 1.512481e+001
    endloop
  endfacet
  facet normal 0.000000e+000 -0.000000e+000 1.000000e+000
    outer loop
      vertex   -2.867576e+001 -2.045019e+001 1.512481e+001
      vertex   -1.405249e+001 -2.045019e+001 1.512481e+001
      vertex   -2.865576e+001 -2.043019e+001 1.512481e+001
    endloop
  endfacet
  facet normal 1.218078e-016 8.893965e-014 1.000000e+000
    outer loop
      vertex   -2.865576e+001 -2.043019e+001 1.512481e+001
      vertex   -1.405249e+001 -2.045019e+001 1.512481e+001
      vertex   -1.407249e+001 -2.043019e+001 1.512481e+001
    endloop
  endfacet
  facet normal -8.843528e-014 3.825627e-016 1.000000e+000
    outer loop
      vertex   -1.407249e+001 -2.043019e+001 1.512481e+001
      vertex   -1.405249e+001 -2.045019e+001 1.512481e+001
      vertex   -1.405249e+001 -1.116357e+001 1.512481e+001
    endloop
  endfacet
  facet normal 2.096293e-029 -8.881784e-014 1.000000e+000
    outer loop
      vertex   -1.407249e+001 -1.114357e+001 1.512481e+001
      vertex   -1.405249e+001 -1.116357e+001 1.512481e+001
      vertex   9.800000e-001 -1.114357e+001 1.512481e+001
    endloop
  endfacet
  facet normal 8.881784e-014 0.000000e+000 1.000000e+000
    outer loop
      vertex   -1.407249e+001 -1.114357e+001 1.512481e+001
      vertex   -1.407249e+001 -2.043019e+001 1.512481e+001
      vertex   -1.405249e+001 -1.116357e+001 1.512481e+001
    endloop
  endfacet
  facet normal 1.383714e-016 2.621031e-016 1.000000e+000
    outer loop
      vertex   -7.610937e+001 2.411070e+000 1.512481e+001
      vertex   -7.612937e+001 2.421628e+000 1.512481e+001
      vertex   -7.610937e+001 -1.114357e+001 1.512481e+001
    endloop
  endfacet
  facet normal 6.425797e-017 1.217175e-016 1.000000e+000
    outer loop
      vertex   -7.610937e+001 2.411070e+000 1.512481e+001
      vertex   -5.202808e+001 1.888610e+001 1.512481e+001
      vertex   -7.612937e+001 2.421628e+000 1.512481e+001
    endloop
  endfacet
  facet normal 9.301438e-017 7.968466e-017 1.000000e+000
    outer loop
      vertex   -7.610937e+001 2.411070e+000 1.512481e+001
      vertex   -5.201499e+001 1.887082e+001 1.512481e+001
      vertex   -5.202808e+001 1.888610e+001 1.512481e+001
    endloop
  endfacet
  facet normal 9.298771e-017 7.966181e-017 1.000000e+000
    outer loop
      vertex   -5.202808e+001 1.888610e+001 1.512481e+001
      vertex   -5.201499e+001 1.887082e+001 1.512481e+001
      vertex   -2.792678e+001 3.535057e+001 1.512481e+001
    endloop
  endfacet
  facet normal 1.217524e-016 3.761695e-017 1.000000e+000
    outer loop
      vertex   -2.792678e+001 3.535057e+001 1.512481e+001
      vertex   -5.201499e+001 1.887082e+001 1.512481e+001
      vertex   -2.792061e+001 3.533057e+001 1.512481e+001
    endloop
  endfacet
  facet normal 0.000000e+000 0.000000e+000 1.000000e+000
    outer loop
      vertex   -1.407249e+001 3.533057e+001 1.512481e+001
      vertex   -2.792678e+001 3.535057e+001 1.512481e+001
      vertex   -2.792061e+001 3.533057e+001 1.512481e+001
    endloop
  endfacet
  facet normal 0.000000e+000 -0.000000e+000 1.000000e+000
    outer loop
      vertex   -1.407249e+001 3.533057e+001 1.512481e+001
      vertex   -1.405249e+001 3.535057e+001 1.512481e+001
      vertex   -2.792678e+001 3.535057e+001 1.512481e+001
    endloop
  endfacet
  facet normal -2.320880e-016 2.320880e-016 1.000000e+000
    outer loop
      vertex   -1.407249e+001 3.533057e+001 1.512481e+001
      vertex   -1.405249e+001 4.735334e+000 1.512481e+001
      vertex   -1.405249e+001 3.535057e+001 1.512481e+001
    endloop
  endfacet
  facet normal -2.320880e-016 2.320880e-016 1.000000e+000
    outer loop
      vertex   -1.407249e+001 3.533057e+001 1.512481e+001
      vertex   -1.407249e+001 4.715334e+000 1.512481e+001
      vertex   -1.405249e+001 4.735334e+000 1.512481e+001
    endloop
  endfacet
  facet normal -0.000000e+000 0.000000e+000 1.000000e+000
    outer loop
      vertex   -1.405249e+001 4.735334e+000 1.512481e+001
      vertex   -1.407249e+001 4.715334e+000 1.512481e+001
      vertex   9.800000e-001 4.715334e+000 1.512481e+001
    endloop
  endfacet
  facet normal -8.904186e-014 2.240201e-016 1.000000e+000
    outer loop
      vertex   1.000000e+000 4.735334e+000 1.512481e+001
      vertex   9.800000e-001 4.715334e+000 1.512481e+001
      vertex   9.800000e-001 -1.114357e+001 1.512481e+001
    endloop
  endfacet
  facet normal -1.180108e-016 -1.180108e-016 1.000000e+000
    outer loop
      vertex   1.000000e+000 -1.116357e+001 1.512481e+001
      vertex   9.800000e-001 -1.114357e+001 1.512481e+001
      vertex   -1.405249e+001 -1.116357e+001 1.512481e+001
    endloop
  endfacet
  facet normal 1.117282e-016 1.117282e-016 1.000000e+000
    outer loop
      vertex   1.000000e+000 -1.116357e+001 1.512481e+001
      vertex   1.000000e+000 4.735334e+000 1.512481e+001
      vertex   9.800000e-001 -1.114357e+001 1.512481e+001
    endloop
  endfacet
  facet normal -1.180108e-016 -8.869983e-014 1.000000e+000
    outer loop
      vertex   -1.405249e+001 4.735334e+000 1.512481e+001
      vertex   9.800000e-001 4.715334e+000 1.512481e+001
      vertex   1.000000e+000 4.735334e+000 1.512481e+001
    endloop
  endfacet
  facet normal -8.894860e-014 1.307568e-016 1.000000e+000
    outer loop
      vertex   -7.612937e+001 2.421628e+000 1.512481e+001
      vertex   -7.612937e+001 -1.116357e+001 1.512481e+001
      vertex   -7.610937e+001 -1.114357e+001 1.512481e+001
    endloop
  endfacet
  facet normal -3.743355e-017 -8.878041e-014 1.000000e+000
    outer loop
      vertex   -7.610937e+001 -1.114357e+001 1.512481e+001
      vertex   -7.612937e+001 -1.116357e+001 1.512481e+001
      vertex   -2.867576e+001 -1.116357e+001 1.512481e+001
    endloop
  endfacet
  facet normal 0.000000e+000 0.000000e+000 1.000000e+000
    outer loop
      vertex   -2.865576e+001 -1.114357e+001 1.512481e+001
      vertex   -7.610937e+001 -1.114357e+001 1.512481e+001
      vertex   -2.867576e+001 -1.116357e+001 1.512481e+001
    endloop
  endfacet
  facet normal -7.071068e-001 1.050041e-016 7.071068e-001
    outer loop
      vertex   9.800000e-001 4.715334e+000 1.512481e+001
      vertex   -1.000000e-002 3.725334e+000 1.413481e+001
      vertex   9.800000e-001 -1.114357e+001 1.512481e+001
    endloop
  endfacet
  facet normal -7.071068e-001 1.810048e-016 7.071068e-001
    outer loop
      vertex   9.800000e-001 -1.114357e+001 1.512481e+001
      vertex   -1.000000e-002 3.725334e+000 1.413481e+001
      vertex   -1.000000e-002 -1.015357e+001 1.413481e+001
    endloop
  endfacet
  facet normal 8.344626e-017 -7.071068e-001 7.071068e-001
    outer loop
      vertex   9.800000e-001 4.715334e+000 1.512481e+001
      vertex   -1.407249e+001 4.715334e+000 1.512481e+001
      vertex   -1.000000e-002 3.725334e+000 1.413481e+001
    endloop
  endfacet
  facet normal -8.428915e-017 -7.071068e-001 7.071068e-001
    outer loop
      vertex   -1.000000e-002 3.725334e+000 1.413481e+001
      vertex   -1.407249e+001 4.715334e+000 1.512481e+001
      vertex   -1.506249e+001 3.725334e+000 1.413481e+001
    endloop
  endfacet
  facet normal -7.071068e-001 1.217364e-016 7.071068e-001
    outer loop
      vertex   -1.407249e+001 3.533057e+001 1.512481e+001
      vertex   -1.506249e+001 3.434057e+001 1.413481e+001
      vertex   -1.407249e+001 4.715334e+000 1.512481e+001
    endloop
  endfacet
  facet normal -7.071068e-001 8.205548e-017 7.071068e-001
    outer loop
      vertex   -1.407249e+001 4.715334e+000 1.512481e+001
      vertex   -1.506249e+001 3.434057e+001 1.413481e+001
      vertex   -1.506249e+001 3.725334e+000 1.413481e+001
    endloop
  endfacet
  facet normal 0.000000e+000 -7.071068e-001 7.071068e-001
    outer loop
      vertex   -1.407249e+001 3.533057e+001 1.512481e+001
      vertex   -2.792061e+001 3.533057e+001 1.512481e+001
      vertex   -1.506249e+001 3.434057e+001 1.413481e+001
    endloop
  endfacet
  facet normal -2.021570e-016 -7.071068e-001 7.071068e-001
    outer loop
      vertex   -1.506249e+001 3.434057e+001 1.413481e+001
      vertex   -2.792061e+001 3.533057e+001 1.512481e+001
      vertex   -2.761473e+001 3.434057e+001 1.413481e+001
    endloop
  endfacet
  facet normal -1.852866e-016 7.071068e-001 7.071068e-001
    outer loop
      vertex   -2.766576e+001 -1.015357e+001 1.413481e+001
      vertex   -7.511937e+001 -1.015357e+001 1.413481e+001
      vertex   -2.865576e+001 -1.114357e+001 1.512481e+001
    endloop
  endfacet
  facet normal 0.000000e+000 7.071068e-001 7.071068e-001
    outer loop
      vertex   -2.865576e+001 -1.114357e+001 1.512481e+001
      vertex   -7.511937e+001 -1.015357e+001 1.413481e+001
      vertex   -7.610937e+001 -1.114357e+001 1.512481e+001
    endloop
  endfacet
  facet normal 3.988645e-001 -5.838725e-001 7.071068e-001
    outer loop
      vertex   -2.792061e+001 3.533057e+001 1.512481e+001
      vertex   -5.201499e+001 1.887082e+001 1.512481e+001
      vertex   -2.761473e+001 3.434057e+001 1.413481e+001
    endloop
  endfacet
  facet normal 3.988645e-001 -5.838725e-001 7.071068e-001
    outer loop
      vertex   -2.761473e+001 3.434057e+001 1.413481e+001
      vertex   -5.201499e+001 1.887082e+001 1.512481e+001
      vertex   -5.136705e+001 1.811450e+001 1.413481e+001
    endloop
  endfacet
  facet normal 3.988645e-001 -5.838725e-001 7.071068e-001
    outer loop
      vertex   -5.136705e+001 1.811450e+001 1.413481e+001
      vertex   -5.201499e+001 1.887082e+001 1.512481e+001
      vertex   -7.511937e+001 1.888422e+000 1.413481e+001
    endloop
  endfacet
  facet normal 3.988645e-001 -5.838725e-001 7.071068e-001
    outer loop
      vertex   -7.511937e+001 1.888422e+000 1.413481e+001
      vertex   -5.201499e+001 1.887082e+001 1.512481e+001
      vertex   -7.610937e+001 2.411070e+000 1.512481e+001
    endloop
  endfacet
  facet normal 7.071068e-001 2.041378e-016 7.071068e-001
    outer loop
      vertex   -7.511937e+001 1.888422e+000 1.413481e+001
      vertex   -7.610937e+001 2.411070e+000 1.512481e+001
      vertex   -7.511937e+001 -1.015357e+001 1.413481e+001
    endloop
  endfacet
  facet normal 7.071068e-001 1.853349e-016 7.071068e-001
    outer loop
      vertex   -7.511937e+001 -1.015357e+001 1.413481e+001
      vertex   -7.610937e+001 2.411070e+000 1.512481e+001
      vertex   -7.610937e+001 -1.114357e+001 1.512481e+001
    endloop
  endfacet
  facet normal 7.071068e-001 0.000000e+000 7.071068e-001
    outer loop
      vertex   -2.766576e+001 -1.015357e+001 1.413481e+001
      vertex   -2.865576e+001 -1.114357e+001 1.512481e+001
      vertex   -2.766576e+001 -1.944019e+001 1.413481e+001
    endloop
  endfacet
  facet normal 7.071068e-001 1.352563e-016 7.071068e-001
    outer loop
      vertex   -2.766576e+001 -1.944019e+001 1.413481e+001
      vertex   -2.865576e+001 -1.114357e+001 1.512481e+001
      vertex   -2.865576e+001 -2.043019e+001 1.512481e+001
    endloop
  endfacet
  facet normal 0.000000e+000 7.071068e-001 7.071068e-001
    outer loop
      vertex   -1.506249e+001 -1.944019e+001 1.413481e+001
      vertex   -2.766576e+001 -1.944019e+001 1.413481e+001
      vertex   -1.407249e+001 -2.043019e+001 1.512481e+001
    endloop
  endfacet
  facet normal 8.700115e-017 7.071068e-001 7.071068e-001
    outer loop
      vertex   -1.407249e+001 -2.043019e+001 1.512481e+001
      vertex   -2.766576e+001 -1.944019e+001 1.413481e+001
      vertex   -2.865576e+001 -2.043019e+001 1.512481e+001
    endloop
  endfacet
  facet normal -7.071068e-001 2.705127e-016 7.071068e-001
    outer loop
      vertex   -1.506249e+001 -1.015357e+001 1.413481e+001
      vertex   -1.506249e+001 -1.944019e+001 1.413481e+001
      vertex   -1.407249e+001 -1.114357e+001 1.512481e+001
    endloop
  endfacet
  facet normal -7.071068e-001 0.000000e+000 7.071068e-001
    outer loop
      vertex   -1.407249e+001 -1.114357e+001 1.512481e+001
      vertex   -1.506249e+001 -1.944019e+001 1.413481e+001
      vertex   -1.407249e+001 -2.043019e+001 1.512481e+001
    endloop
  endfacet
  facet normal -1.685783e-016 7.071068e-001 7.071068e-001
    outer loop
      vertex   -1.506249e+001 -1.015357e+001 1.413481e+001
      vertex   -1.407249e+001 -1.114357e+001 1.512481e+001
      vertex   -1.000000e-002 -1.015357e+001 1.413481e+001
    endloop
  endfacet
  facet normal -1.668925e-016 7.071068e-001 7.071068e-001
    outer loop
      vertex   -1.000000e-002 -1.015357e+001 1.413481e+001
      vertex   -1.407249e+001 -1.114357e+001 1.512481e+001
      vertex   9.800000e-001 -1.114357e+001 1.512481e+001
    endloop
  endfacet
  facet normal -5.200017e-032 -1.000000e+000 4.406390e-016
    outer loop
      vertex   -1.000000e-002 3.725334e+000 1.413481e+001
      vertex   -1.506249e+001 3.725334e+000 1.413481e+001
      vertex   -1.000000e-002 3.725334e+000 2.518971e-002
    endloop
  endfacet
  facet normal 0.000000e+000 -1.000000e+000 4.406390e-016
    outer loop
      vertex   -1.000000e-002 3.725334e+000 2.518971e-002
      vertex   -1.506249e+001 3.725334e+000 1.413481e+001
      vertex   -1.506249e+001 3.725334e+000 2.518971e-002
    endloop
  endfacet
  facet normal -1.000000e+000 -5.802199e-017 2.921914e-032
    outer loop
      vertex   -1.506249e+001 3.725334e+000 1.413481e+001
      vertex   -1.506249e+001 3.434057e+001 1.413481e+001
      vertex   -1.506249e+001 3.725334e+000 2.518971e-002
    endloop
  endfacet
  facet normal -1.000000e+000 -5.802199e-017 2.921914e-032
    outer loop
      vertex   -1.506249e+001 3.725334e+000 2.518971e-002
      vertex   -1.506249e+001 3.434057e+001 1.413481e+001
      vertex   -1.506249e+001 3.434057e+001 2.518971e-002
    endloop
  endfacet
  facet normal -1.425325e-031 -1.000000e+000 5.035874e-016
    outer loop
      vertex   -1.506249e+001 3.434057e+001 1.413481e+001
      vertex   -2.761473e+001 3.434057e+001 1.413481e+001
      vertex   -1.506249e+001 3.434057e+001 2.518971e-002
    endloop
  endfacet
  facet normal 0.000000e+000 -1.000000e+000 5.035874e-016
    outer loop
      vertex   -1.506249e+001 3.434057e+001 2.518971e-002
      vertex   -2.761473e+001 3.434057e+001 1.413481e+001
      vertex   -2.761473e+001 3.434057e+001 2.518971e-002
    endloop
  endfacet
  facet normal 5.640796e-001 -8.257204e-001 -3.006898e-013
    outer loop
      vertex   -4.231127e+001 2.430083e+001 5.000000e-002
      vertex   -5.056902e+001 1.865966e+001 5.000000e-002
      vertex   -5.136705e+001 1.811450e+001 2.518971e-002
    endloop
  endfacet
  facet normal 5.640796e-001 -8.257204e-001 -1.393841e-013
    outer loop
      vertex   -2.761473e+001 3.434057e+001 2.518971e-002
      vertex   -4.231127e+001 2.430083e+001 5.000000e-002
      vertex   -5.136705e+001 1.811450e+001 2.518971e-002
    endloop
  endfacet
  facet normal 5.640796e-001 -8.257204e-001 0.000000e+000
    outer loop
      vertex   -2.761473e+001 3.434057e+001 2.518971e-002
      vertex   -4.231127e+001 2.430083e+001 2.050000e+000
      vertex   -4.231127e+001 2.430083e+001 5.000000e-002
    endloop
  endfacet
  facet normal 5.640796e-001 -8.257204e-001 4.158224e-016
    outer loop
      vertex   -2.761473e+001 3.434057e+001 2.518971e-002
      vertex   -2.761473e+001 3.434057e+001 1.413481e+001
      vertex   -4.231127e+001 2.430083e+001 2.050000e+000
    endloop
  endfacet
  facet normal 5.640796e-001 -8.257204e-001 5.723153e-016
    outer loop
      vertex   -4.231127e+001 2.430083e+001 2.050000e+000
      vertex   -2.761473e+001 3.434057e+001 1.413481e+001
      vertex   -5.136705e+001 1.811450e+001 1.413481e+001
    endloop
  endfacet
  facet normal 5.640796e-001 -8.257204e-001 8.482531e-016
    outer loop
      vertex   -5.056902e+001 1.865966e+001 2.050000e+000
      vertex   -5.136705e+001 1.811450e+001 1.413481e+001
      vertex   -7.511937e+001 1.888422e+000 1.413481e+001
    endloop
  endfacet
  facet normal 5.640796e-001 -8.257204e-001 4.065008e-016
    outer loop
      vertex   -7.511937e+001 1.888422e+000 2.518971e-002
      vertex   -5.056902e+001 1.865966e+001 2.050000e+000
      vertex   -7.511937e+001 1.888422e+000 1.413481e+001
    endloop
  endfacet
  facet normal 5.640796e-001 -8.257204e-001 -3.659773e-015
    outer loop
      vertex   -7.511937e+001 1.888422e+000 2.518971e-002
      vertex   -5.136705e+001 1.811450e+001 2.518971e-002
      vertex   -5.056902e+001 1.865966e+001 2.050000e+000
    endloop
  endfacet
  facet normal 5.640796e-001 -8.257204e-001 0.000000e+000
    outer loop
      vertex   -5.056902e+001 1.865966e+001 2.050000e+000
      vertex   -5.136705e+001 1.811450e+001 2.518971e-002
      vertex   -5.056902e+001 1.865966e+001 5.000000e-002
    endloop
  endfacet
  facet normal 5.640796e-001 -8.257204e-001 8.230940e-016
    outer loop
      vertex   -5.056902e+001 1.865966e+001 2.050000e+000
      vertex   -4.231127e+001 2.430083e+001 2.050000e+000
      vertex   -5.136705e+001 1.811450e+001 1.413481e+001
    endloop
  endfacet
  facet normal 1.000000e+000 0.000000e+000 0.000000e+000
    outer loop
      vertex   -7.511937e+001 1.888422e+000 1.413481e+001
      vertex   -7.511937e+001 -1.015357e+001 1.413481e+001
      vertex   -7.511937e+001 1.888422e+000 2.518971e-002
    endloop
  endfacet
  facet normal 1.000000e+000 0.000000e+000 0.000000e+000
    outer loop
      vertex   -7.511937e+001 1.888422e+000 2.518971e-002
      vertex   -7.511937e+001 -1.015357e+001 1.413481e+001
      vertex   -7.511937e+001 -1.015357e+001 2.518971e-002
    endloop
  endfacet
  facet normal -1.762000e-016 1.000000e+000 -8.881784e-016
    outer loop
      vertex   -4.500000e+001 -1.015357e+001 5.000000e-002
      vertex   -7.511937e+001 -1.015357e+001 2.518971e-002
      vertex   -4.500000e+001 -1.015357e+001 2.050000e+000
    endloop
  endfacet
  facet normal 0.000000e+000 1.000000e+000 -2.147927e-013
    outer loop
      vertex   -4.500000e+001 -1.015357e+001 5.000000e-002
      vertex   -2.766576e+001 -1.015357e+001 2.518971e-002
      vertex   -7.511937e+001 -1.015357e+001 2.518971e-002
    endloop
  endfacet
  facet normal 0.000000e+000 1.000000e+000 -2.147927e-013
    outer loop
      vertex   -4.500000e+001 -1.015357e+001 5.000000e-002
      vertex   -3.500000e+001 -1.015357e+001 5.000000e-002
      vertex   -2.766576e+001 -1.015357e+001 2.518971e-002
    endloop
  endfacet
  facet normal 7.235974e-016 1.000000e+000 -8.881784e-016
    outer loop
      vertex   -2.766576e+001 -1.015357e+001 2.518971e-002
      vertex   -3.500000e+001 -1.015357e+001 5.000000e-002
      vertex   -3.500000e+001 -1.015357e+001 2.050000e+000
    endloop
  endfacet
  facet normal 0.000000e+000 1.000000e+000 -2.939818e-016
    outer loop
      vertex   -2.766576e+001 -1.015357e+001 1.413481e+001
      vertex   -3.500000e+001 -1.015357e+001 2.050000e+000
      vertex   -4.500000e+001 -1.015357e+001 2.050000e+000
    endloop
  endfacet
  facet normal -2.274453e-016 1.000000e+000 -1.258969e-016
    outer loop
      vertex   -7.511937e+001 -1.015357e+001 1.413481e+001
      vertex   -4.500000e+001 -1.015357e+001 2.050000e+000
      vertex   -7.511937e+001 -1.015357e+001 2.518971e-002
    endloop
  endfacet
  facet normal -1.871677e-016 1.000000e+000 -2.551170e-017
    outer loop
      vertex   -7.511937e+001 -1.015357e+001 1.413481e+001
      vertex   -2.766576e+001 -1.015357e+001 1.413481e+001
      vertex   -4.500000e+001 -1.015357e+001 2.050000e+000
    endloop
  endfacet
  facet normal 7.602596e-016 1.000000e+000 -7.553811e-016
    outer loop
      vertex   -2.766576e+001 -1.015357e+001 2.518971e-002
      vertex   -3.500000e+001 -1.015357e+001 2.050000e+000
      vertex   -2.766576e+001 -1.015357e+001 1.413481e+001
    endloop
  endfacet
  facet normal 1.000000e+000 0.000000e+000 0.000000e+000
    outer loop
      vertex   -2.766576e+001 -1.015357e+001 1.413481e+001
      vertex   -2.766576e+001 -1.944019e+001 1.413481e+001
      vertex   -2.766576e+001 -1.015357e+001 2.518971e-002
    endloop
  endfacet
  facet normal 1.000000e+000 0.000000e+000 0.000000e+000
    outer loop
      vertex   -2.766576e+001 -1.015357e+001 2.518971e-002
      vertex   -2.766576e+001 -1.944019e+001 1.413481e+001
      vertex   -2.766576e+001 -1.944019e+001 2.518971e-002
    endloop
  endfacet
  facet normal 0.000000e+000 1.000000e+000 -7.553811e-016
    outer loop
      vertex   -2.766576e+001 -1.944019e+001 1.413481e+001
      vertex   -1.506249e+001 -1.944019e+001 1.413481e+001
      vertex   -2.766576e+001 -1.944019e+001 2.518971e-002
    endloop
  endfacet
  facet normal 0.000000e+000 1.000000e+000 -7.553811e-016
    outer loop
      vertex   -2.766576e+001 -1.944019e+001 2.518971e-002
      vertex   -1.506249e+001 -1.944019e+001 1.413481e+001
      vertex   -1.506249e+001 -1.944019e+001 2.518971e-002
    endloop
  endfacet
  facet normal -1.000000e+000 0.000000e+000 -0.000000e+000
    outer loop
      vertex   -1.506249e+001 -1.944019e+001 1.413481e+001
      vertex   -1.506249e+001 -1.015357e+001 1.413481e+001
      vertex   -1.506249e+001 -1.944019e+001 2.518971e-002
    endloop
  endfacet
  facet normal -1.000000e+000 0.000000e+000 -0.000000e+000
    outer loop
      vertex   -1.506249e+001 -1.944019e+001 2.518971e-002
      vertex   -1.506249e+001 -1.015357e+001 1.413481e+001
      vertex   -1.506249e+001 -1.015357e+001 2.518971e-002
    endloop
  endfacet
  facet normal 2.971438e-032 1.000000e+000 -1.258969e-016
    outer loop
      vertex   -1.506249e+001 -1.015357e+001 1.413481e+001
      vertex   -1.000000e-002 -1.015357e+001 1.413481e+001
      vertex   -1.506249e+001 -1.015357e+001 2.518971e-002
    endloop
  endfacet
  facet normal 0.000000e+000 1.000000e+000 -1.258969e-016
    outer loop
      vertex   -1.506249e+001 -1.015357e+001 2.518971e-002
      vertex   -1.000000e-002 -1.015357e+001 1.413481e+001
      vertex   -1.000000e-002 -1.015357e+001 2.518971e-002
    endloop
  endfacet
  facet normal -5.640796e-001 8.257204e-001 -6.237336e-016
    outer loop
      vertex   -7.711937e+001 2.944276e+000 2.518971e-002
      vertex   -7.711937e+001 2.944276e+000 1.413481e+001
      vertex   -5.267602e+001 1.964242e+001 2.518971e-002
    endloop
  endfacet
  facet normal -5.640796e-001 8.257204e-001 -1.088747e-015
    outer loop
      vertex   -5.267602e+001 1.964242e+001 2.518971e-002
      vertex   -7.711937e+001 2.944276e+000 1.413481e+001
      vertex   -5.267602e+001 1.964242e+001 1.413481e+001
    endloop
  endfacet
  facet normal -5.640796e-001 8.257204e-001 -1.115708e-015
    outer loop
      vertex   -2.823266e+001 3.634057e+001 1.413481e+001
      vertex   -5.267602e+001 1.964242e+001 2.518971e-002
      vertex   -5.267602e+001 1.964242e+001 1.413481e+001
    endloop
  endfacet
  facet normal -5.640796e-001 8.257204e-001 -4.158224e-016
    outer loop
      vertex   -2.823266e+001 3.634057e+001 1.413481e+001
      vertex   -2.823266e+001 3.634057e+001 2.518971e-002
      vertex   -5.267602e+001 1.964242e+001 2.518971e-002
    endloop
  endfacet
  facet normal 5.896777e-032 1.000000e+000 -5.035874e-016
    outer loop
      vertex   -2.823266e+001 3.634057e+001 1.413481e+001
      vertex   -1.306249e+001 3.634057e+001 1.413481e+001
      vertex   -2.823266e+001 3.634057e+001 2.518971e-002
    endloop
  endfacet
  facet normal 0.000000e+000 1.000000e+000 -5.035874e-016
    outer loop
      vertex   -2.823266e+001 3.634057e+001 2.518971e-002
      vertex   -1.306249e+001 3.634057e+001 1.413481e+001
      vertex   -1.306249e+001 3.634057e+001 2.518971e-002
    endloop
  endfacet
  facet normal 1.000000e+000 1.740660e-016 1.258969e-016
    outer loop
      vertex   -1.306249e+001 3.634057e+001 1.413481e+001
      vertex   -1.306249e+001 5.725334e+000 1.413481e+001
      vertex   -1.306249e+001 3.634057e+001 2.518971e-002
    endloop
  endfacet
  facet normal 1.000000e+000 1.160440e-016 -5.113350e-032
    outer loop
      vertex   -1.306249e+001 3.634057e+001 2.518971e-002
      vertex   -1.306249e+001 5.725334e+000 1.413481e+001
      vertex   -1.306249e+001 5.725334e+000 2.518971e-002
    endloop
  endfacet
  facet normal 5.200017e-032 1.000000e+000 -4.406390e-016
    outer loop
      vertex   -1.306249e+001 5.725334e+000 1.413481e+001
      vertex   1.990000e+000 5.725334e+000 1.413481e+001
      vertex   -1.306249e+001 5.725334e+000 2.518971e-002
    endloop
  endfacet
  facet normal 0.000000e+000 1.000000e+000 -4.406390e-016
    outer loop
      vertex   -1.306249e+001 5.725334e+000 2.518971e-002
      vertex   1.990000e+000 5.725334e+000 1.413481e+001
      vertex   1.990000e+000 5.725334e+000 2.518971e-002
    endloop
  endfacet
  facet normal -1.000000e+000 0.000000e+000 -0.000000e+000
    outer loop
      vertex   -1.000000e-002 -1.015357e+001 1.413481e+001
      vertex   -1.000000e-002 3.725334e+000 1.413481e+001
      vertex   -1.000000e-002 -1.015357e+001 2.518971e-002
    endloop
  endfacet
  facet normal -1.000000e+000 0.000000e+000 -0.000000e+000
    outer loop
      vertex   -1.000000e-002 -1.015357e+001 2.518971e-002
      vertex   -1.000000e-002 3.725334e+000 1.413481e+001
      vertex   -1.000000e-002 3.725334e+000 2.518971e-002
    endloop
  endfacet
  facet normal 9.220527e-016 -4.657261e-016 -1.000000e+000
    outer loop
      vertex   1.990000e+000 5.725334e+000 2.518971e-002
      vertex   1.990000e+000 -1.215357e+001 2.518971e-002
      vertex   -1.000000e-002 -1.015357e+001 2.518971e-002
    endloop
  endfacet
  facet normal 2.411915e-016 -3.799694e-016 -1.000000e+000
    outer loop
      vertex   -1.000000e-002 3.725334e+000 2.518971e-002
      vertex   1.990000e+000 5.725334e+000 2.518971e-002
      vertex   -1.000000e-002 -1.015357e+001 2.518971e-002
    endloop
  endfacet
  facet normal 0.000000e+000 -1.387779e-016 -1.000000e+000
    outer loop
      vertex   -1.000000e-002 3.725334e+000 2.518971e-002
      vertex   -1.306249e+001 5.725334e+000 2.518971e-002
      vertex   1.990000e+000 5.725334e+000 2.518971e-002
    endloop
  endfacet
  facet normal -0.000000e+000 -1.387779e-016 -1.000000e+000
    outer loop
      vertex   -1.000000e-002 3.725334e+000 2.518971e-002
      vertex   -1.506249e+001 3.725334e+000 2.518971e-002
      vertex   -1.306249e+001 5.725334e+000 2.518971e-002
    endloop
  endfacet
  facet normal 2.963870e-016 -4.351649e-016 -1.000000e+000
    outer loop
      vertex   -1.306249e+001 5.725334e+000 2.518971e-002
      vertex   -1.506249e+001 3.725334e+000 2.518971e-002
      vertex   -1.506249e+001 3.434057e+001 2.518971e-002
    endloop
  endfacet
  facet normal 0.000000e+000 -2.775558e-016 -1.000000e+000
    outer loop
      vertex   -1.306249e+001 3.634057e+001 2.518971e-002
      vertex   -1.506249e+001 3.434057e+001 2.518971e-002
      vertex   -2.823266e+001 3.634057e+001 2.518971e-002
    endloop
  endfacet
  facet normal 1.666751e-016 -4.442309e-016 -1.000000e+000
    outer loop
      vertex   -1.306249e+001 3.634057e+001 2.518971e-002
      vertex   -1.306249e+001 5.725334e+000 2.518971e-002
      vertex   -1.506249e+001 3.434057e+001 2.518971e-002
    endloop
  endfacet
  facet normal 8.006852e-016 -4.483157e-016 -1.000000e+000
    outer loop
      vertex   -1.306249e+001 -2.144019e+001 2.518971e-002
      vertex   -1.506249e+001 -1.944019e+001 2.518971e-002
      vertex   -1.306249e+001 -1.215357e+001 2.518971e-002
    endloop
  endfacet
  facet normal -0.000000e+000 -1.249001e-015 -1.000000e+000
    outer loop
      vertex   -1.306249e+001 -2.144019e+001 2.518971e-002
      vertex   -2.966576e+001 -2.144019e+001 2.518971e-002
      vertex   -1.506249e+001 -1.944019e+001 2.518971e-002
    endloop
  endfacet
  facet normal 0.000000e+000 -1.249001e-015 -1.000000e+000
    outer loop
      vertex   -1.506249e+001 -1.944019e+001 2.518971e-002
      vertex   -2.966576e+001 -2.144019e+001 2.518971e-002
      vertex   -2.766576e+001 -1.944019e+001 2.518971e-002
    endloop
  endfacet
  facet normal -8.006852e-016 -4.483157e-016 -1.000000e+000
    outer loop
      vertex   -2.766576e+001 -1.944019e+001 2.518971e-002
      vertex   -2.966576e+001 -2.144019e+001 2.518971e-002
      vertex   -2.966576e+001 -1.215357e+001 2.518971e-002
    endloop
  endfacet
  facet normal 0.000000e+000 -1.387779e-015 -1.000000e+000
    outer loop
      vertex   -2.766576e+001 -1.015357e+001 2.518971e-002
      vertex   -2.966576e+001 -1.215357e+001 2.518971e-002
      vertex   -7.511937e+001 -1.015357e+001 2.518971e-002
    endloop
  endfacet
  facet normal -9.095754e-016 -4.782034e-016 -1.000000e+000
    outer loop
      vertex   -2.766576e+001 -1.015357e+001 2.518971e-002
      vertex   -2.766576e+001 -1.944019e+001 2.518971e-002
      vertex   -2.966576e+001 -1.215357e+001 2.518971e-002
    endloop
  endfacet
  facet normal -0.000000e+000 -1.387779e-015 -1.000000e+000
    outer loop
      vertex   -2.966576e+001 -1.215357e+001 2.518971e-002
      vertex   -7.711937e+001 -1.215357e+001 2.518971e-002
      vertex   -7.511937e+001 -1.015357e+001 2.518971e-002
    endloop
  endfacet
  facet normal -8.730325e-016 -5.147463e-016 -1.000000e+000
    outer loop
      vertex   -7.511937e+001 -1.015357e+001 2.518971e-002
      vertex   -7.711937e+001 -1.215357e+001 2.518971e-002
      vertex   -7.711937e+001 2.944276e+000 2.518971e-002
    endloop
  endfacet
  facet normal -5.214813e-017 -3.616521e-016 -1.000000e+000
    outer loop
      vertex   -7.511937e+001 1.888422e+000 2.518971e-002
      vertex   -7.711937e+001 2.944276e+000 2.518971e-002
      vertex   -5.267602e+001 1.964242e+001 2.518971e-002
    endloop
  endfacet
  facet normal 8.274037e-017 -5.308494e-016 -1.000000e+000
    outer loop
      vertex   -5.136705e+001 1.811450e+001 2.518971e-002
      vertex   -5.267602e+001 1.964242e+001 2.518971e-002
      vertex   -2.823266e+001 3.634057e+001 2.518971e-002
    endloop
  endfacet
  facet normal 0.000000e+000 -2.775558e-016 -1.000000e+000
    outer loop
      vertex   -2.761473e+001 3.434057e+001 2.518971e-002
      vertex   -2.823266e+001 3.634057e+001 2.518971e-002
      vertex   -1.506249e+001 3.434057e+001 2.518971e-002
    endloop
  endfacet
  facet normal -9.394568e-017 -3.065815e-016 -1.000000e+000
    outer loop
      vertex   -2.761473e+001 3.434057e+001 2.518971e-002
      vertex   -5.136705e+001 1.811450e+001 2.518971e-002
      vertex   -2.823266e+001 3.634057e+001 2.518971e-002
    endloop
  endfacet
  facet normal -6.808137e-017 -3.918328e-016 -1.000000e+000
    outer loop
      vertex   -7.511937e+001 -1.015357e+001 2.518971e-002
      vertex   -7.711937e+001 2.944276e+000 2.518971e-002
      vertex   -7.511937e+001 1.888422e+000 2.518971e-002
    endloop
  endfacet
  facet normal 8.211838e-017 -5.313823e-016 -1.000000e+000
    outer loop
      vertex   -7.511937e+001 1.888422e+000 2.518971e-002
      vertex   -5.267602e+001 1.964242e+001 2.518971e-002
      vertex   -5.136705e+001 1.811450e+001 2.518971e-002
    endloop
  endfacet
  facet normal 9.095754e-016 -4.782034e-016 -1.000000e+000
    outer loop
      vertex   -1.506249e+001 -1.944019e+001 2.518971e-002
      vertex   -1.506249e+001 -1.015357e+001 2.518971e-002
      vertex   -1.306249e+001 -1.215357e+001 2.518971e-002
    endloop
  endfacet
  facet normal 0.000000e+000 -1.387779e-015 -1.000000e+000
    outer loop
      vertex   -1.306249e+001 -1.215357e+001 2.518971e-002
      vertex   -1.506249e+001 -1.015357e+001 2.518971e-002
      vertex   -1.000000e-002 -1.015357e+001 2.518971e-002
    endloop
  endfacet
  facet normal -0.000000e+000 -1.387779e-015 -1.000000e+000
    outer loop
      vertex   1.990000e+000 -1.215357e+001 2.518971e-002
      vertex   -1.306249e+001 -1.215357e+001 2.518971e-002
      vertex   -1.000000e-002 -1.015357e+001 2.518971e-002
    endloop
  endfacet
  facet normal 1.000000e+000 4.967745e-017 -6.294843e-017
    outer loop
      vertex   1.990000e+000 5.725334e+000 1.413481e+001
      vertex   1.990000e+000 -1.215357e+001 1.413481e+001
      vertex   1.990000e+000 5.725334e+000 2.518971e-002
    endloop
  endfacet
  facet normal 1.000000e+000 1.117743e-016 1.573711e-017
    outer loop
      vertex   1.990000e+000 5.725334e+000 2.518971e-002
      vertex   1.990000e+000 -1.215357e+001 1.413481e+001
      vertex   1.990000e+000 -1.215357e+001 2.518971e-002
    endloop
  endfacet
endsolid
